<?xml version="1.0" encoding="UTF-8"?>
<svg fill="#ffffff" id="Layer_1" data-name="Layer 1" xmlns="http://www.w3.org/2000/svg" viewBox="0 0 249 249">
  <path d="M193.611,216.361c.988-11.067-6.102-19.32-16.598-19.331l-36.057-.038c-10.912-.011-18.452,7.654-17.488,19.478l-10.85-.093c-.675-7.445,1.241-11.935,4.79-18.988l-9.395-.498c-2.534-.134-5.529-2.96-5.539-5.808l-.152-41.828c-13.666-4.362-21.415-17.698-18.089-31.021,3.155-12.64,16.156-21.655,30.152-18.793-1.295-13.919-3.695-26.853-4.26-40.463-.584-14.065,12.729-23.567,25.761-23.537l46.084.107c16.128.037,26.971,13.494,24.946,29.266l-4.445,34.618c15.88-2.738,28.878,7.292,30.796,22.519,1.597,12.683-5.89,23.618-18.463,27.176l-.069,41.823c-.004,2.386-2.378,5.753-4.556,5.827l-11.192.379c4.182,5.822,6.026,11.972,5.504,19.271l-10.878-.068ZM181.805,136.542c.538-17.459-.707-19.72,8.67-31.793l5.62-42.675c1.1-8.354-4.401-15.683-13.142-15.634l-50.407.282c-8.277.046-12.567,8.261-11.637,15.243l5.683,42.63c5.214,6.055,8.311,13.18,8.408,21.34l.133,11.208c15.666-5.713,31.229-5.326,46.671-.601ZM193.145,124.392l-.156,50.591-68.967-.064-.086-49.948c-.016-9.055-6.717-15.421-16.081-14.741-5.482.031-10.045,3.701-11.987,8.126-2.142,4.88-1.514,10.718,1.844,15.235,3.396,4.568,9.31,5.474,15.353,6.327l.035,46.13,90.673.053.313-46.706c10.157.676,17.683-4.751,18.353-13.052.682-8.461-4.851-15.646-13.027-16.321-7.769-.642-16.24,5.079-16.268,14.371ZM182.3,164.006l-.425-14.675c-15.058-6.93-30.803-6.2-46.649-.463l-.195,15.15,47.269-.013Z"/>
  <path d="M98.153,204.88l7.019,1.131-.856,10.749-14.506-1.33-4.705-17.051-13.861-6.045-15.655,8.238c-8.636-6.963-15.73-14.792-22.602-23.802l8.236-15.745-6.075-13.879-16.856-5.083c-1.392-11.238-1.269-21.665.195-32.635l17.042-5.611,5.548-13.114-8.343-16.097c6.692-8.656,14.247-16.462,22.811-23.462l15.51,8.038,13.887-5.536,5.184-17.319c7.716-.792,14.265-1.04,22.04-.957l-6.808,10.159-6.651.853-5.008,15.564c-7.829,2.399-15,5.376-22.648,9.071l-13.845-7.194c-4.176,4.156-7.742,7.891-11.572,12.11l6.918,14.91c-3.866,7.563-6.307,13.723-8.434,21.485l-15.44,4.864-.529,16.447,15.677,5.374c2.645,7.874,5.33,14.031,9.199,21.412l-6.854,15.227,10.759,11.581,14.304-7.42c7.28,3.483,13.815,6.415,21.989,9.473l4.928,15.595Z"/>
  <path d="M67.726,137.991c4.071,13.291,14.083,21.844,26.148,27.098.248,3.566.129,6.941-.427,10.755-15.673-3.935-28.216-15.965-33.741-28.757-7.284-16.863-5.549-34.417,3.262-48.707,9.101-14.761,23.419-23.99,41.26-24.509l.56,10.451c-26.188,1.798-45.023,27.673-37.062,53.669Z"/>
</svg>