<?xml version="1.0" encoding="UTF-8"?>
<svg id="Layer_1" data-name="Layer 1" xmlns="http://www.w3.org/2000/svg" viewBox="0 0 800 156.851">
  <path d="M534.138,131.251l-34.443-.027c-1.023,0-.87-3.112.002-3.515,1.652-.763,3.059-2.593,3.981-4.325l1.505-9.53-.059-35.128-31.021-.049-.052,32.141c.089,4.197.567,8.1,1.356,12.153,2.139,5.225,6.122,3.87,4.602,8.277l-34.211-.032c-1.133-.001-.833-3.295.032-3.757,2.123-1.135,3.776-3.223,4.181-5.56.747-4.314,1.225-8.477,1.224-12.93l-.011-48.377c-.002-8.301-.02-16.026-.676-24.245-.802-10.041-7.767-7.655-5.175-12.508l34.648-.026c.886,0,.555,3.202-.351,3.649-1.626.801-3.231,2.798-4.154,4.627-.574,2.964-1.351,6.025-1.357,9.073l-.058,29.227,31.027-.021.08-21.922-.702-13.315c-.77-2.347-1.487-5.486-3.267-6.833l-2.055-1.556c-.582-.44-.308-3.038.529-3.036l34.168.059c.936.002.543,3.272-.262,3.74-5.082,2.952-5.698,10.273-5.699,16.158l-.02,67.101c-.001,4.465.568,8.374,1.725,12.609,1.15,4.208,5.903,2.9,4.517,7.88Z"/>
  <path d="M736.551,113.891l-2.59-10.44c-1.01-4.071-2.266-8.035-4.894-11.443-1.169-1.516-4.368-3.157-6.183-3.166l-7.247-.038-.009,22.641c-.002,5.382.251,12.445,4.384,15.482l2.125,1.562c.555.408.15,2.69-.521,2.706l-34.669-.015c-2.344-4.437,3.354-4.026,4.088-8.03.663-3.615,1.35-6.871,1.352-10.573l.03-68.902c.002-4.52-.392-13.476-4.593-15.589-1.001-.503-2.151-4.204-1.015-4.206l45.943-.073c7.346-.012,14.452,2.246,20.727,5.635,14.175,7.654,17.95,27.25,10.53,41.189-4.544,8.536-13.394,13.944-23.353,15.564,8.077,3.356,12.586,5.919,15.982,14.768,2.568,6.692,4.387,12.959,9.385,17.835,1.058,1.032,4.411,1.392,5.449.464,1.291-1.155,4.342-2.09,4.743.187.321,1.825-1.038,4.991-2.182,6.394-3.662,4.493-8.324,7.107-14.003,7.323-12.117.462-20.679-7.984-23.48-19.274ZM740.369,40.146c-5.596-9.055-15.395-8.481-24.705-8.291l-.024,48.297,9.338-.003c5.803-.002,11.062-2.788,14.725-7.14,5.663-8.755,6.079-24.103.666-32.862Z"/>
  <path d="M560.836,116.969c-2.667,10.177,7.692,10.36,4.446,14.111l-24.301.131c-.834-.08-.686-2.912.024-3.305,1.18-.653,3.368-1.957,4.123-2.963,2.202-2.931,4.201-5.953,5.237-9.337l3.251-10.62,3.546-11.958-2.924.348c-4.421.526-7.413,3.742-8.144,8.266-1.941-.174-3.932-1.516-4.941-3.412-3.386-6.368-1.31-14.186,4.997-17.898,5.942-3.497,8.831-2.685,15.687-2.563l4.024-13.342,7.985-27.125c.923-3.134.827-7.469-2.133-9.234l-2.188-1.304c-.644-.384-.38-3.038.537-3.039l29.442-.028,7.153,23.835,12.346,40.782,7.231,23.129c1.086,3.473,2.464,6.663,4.09,9.951,3.325,6.723,8.204,5.214,6.444,9.871l-36.925-.028c-2.292-4.519,3.108-3.452,3.583-7.961.325-3.088.078-6.174-.722-9.093l-3.188-11.647c-8.079.419-15.401-1.257-22.338-4.947-3.202-1.703-6.512-2.764-10.06-3.613l-2.102,7.042-4.18,15.95ZM590.353,93.602c2.215,1.584,4.761,2.423,7.243,3.124l-8.248-29.028-6.457-22.628-.832-2.914-4.719,16.221-5.173,18.188c-.455,1.6-.852,3.443-1.053,4.842,4.418,1.935,7.653,3.908,11.31,6.524l7.928,5.671Z"/>
  <path d="M377.452,75.093c.141,15.042,4.435,31.741,17.674,40.142,12.67,8.04,31.678,3.589,38.494-11.254,1.502.179,4.032,1.335,4.652,2.574-.252,2.566-1.859,5.717-3.168,8.054-4.729,8.443-12.056,14.419-21.469,17.044-13.96,3.894-29.024,1.535-40.5-7.514-9.588-7.56-15.488-18.056-18.194-29.872-4.541-19.832-.77-44.261,14.088-58.937,13.67-13.503,34.715-17.026,52.247-9.898,5.542,2.253,10.185,5.686,13.23,10.701,4.241,6.987,3.932,18.096-3.139,22.154-5.023,2.882-11.168,2.661-15.44-1.258-1.603-1.47-3.246-4.534-2.308-6.538,1.95-4.167,3.118-8.357,1.429-12.646-1.86-4.725-6.131-7.253-11.077-7.393-10.745-.304-17.296,6.09-21.358,15.339-4.089,9.311-5.256,19.097-5.16,29.302Z"/>
  <path d="M96.277,76.222c2.481-2.113,4.99-13.065.128-15.804-1.751-.986-4.384-1.911-6.494-1.961-9.075-.215-17.743-.316-26.731.39-3.502.275-7.179,2.157-9.042,5.039-3.645,5.639-2.458,11.077-5.137,10.908l-25.931-1.629-14.626-.664c-1.454-1.323,10.095-1.191,12.683-1.379l18.873-1.37c.955-3.775,2-7.33,4.183-10.55,5.236-7.722,15.748-10.737,24.838-10.669l25.821.193c3.903.029,8.015,1.754,11.068,3.891,2.792,1.954,4.106,4.803,5.2,7.886.431,4.207.089,7.968-.9,12.19l-13.689,58.465-51.649.006c-5.578,0-10.447-1.661-14.624-5.212-5.737-7.232-3.195-17.658-.373-25.772,4.165-11.979,15.737-15.29,27.108-16.6l28.269-3.255c3.815-.439,8.13-1.635,11.026-4.103ZM42.98,119.876c2.293.621,4.804,1.299,7.296,1.289l36.566-.141,8.037-33.918-11.508,2.98-15.997,1.665-13.321,1.659c-5.476.682-10.636,3.62-12.813,8.94-1.665,4.07-4.425,15.317,1.74,17.525Z"/>
  <path d="M327.392,120.827c-4.757,7.248-15.026,10.529-23.35,10.557l-24.279.081c-4.483.015-8.974-.486-13.132-1.761-10.378-3.181-10.888-12.918-8.758-21.975l6.925-29.444c2.36-10.036,4.735-20.847,14.84-25.871,4.651-2.312,9.991-3.763,15.252-3.762l28.376.01c3.407.001,7.046,1.158,10.17,2.348,8.351,3.181,9.705,12.334,7.93,20.191l-2.917,12.911-4.956,21.023c-1.312,5.565-2.975,10.93-6.1,15.692ZM304.392,121.113c3.92-.012,7.96-1.348,10.824-3.422,2.731-1.978,4.341-5.423,5.113-8.679l5.827-24.581c1.358-5.727,2.794-11.288,3.44-17.131.401-3.629-1.946-6.795-5.216-7.644-7.302-1.895-23.782-1.323-31.712-.737-8.487.628-12.337,5.197-14.2,13.101l-8.086,34.307c-.859,3.646-2.184,11.158,1.932,12.967,2.923,1.285,6.102,1.895,9.26,1.885l22.819-.067Z"/>
  <path d="M677.493,131.272l-34.362-.113c-1.069-.004-.533-3.611.486-4.059,1.762-.776,3.311-2.913,3.658-4.799.74-4.028,1.368-7.902,1.369-12.113l.003-60.471c0-5.347-.403-10.189-1.164-15.396-1.062-7.271-7.086-6.23-4.728-10.473l34.781-.106c2.848,6.552-6.042-.131-6.038,19.924l.014,67.696c0,3.832.577,7.332,1.357,10.953,1.181,5.479,6.168,3.514,4.623,8.957Z"/>
  <path d="M193.753,97.142l-7.767,33.891-10.232.035c-.304.001-1.135-.302-1.094-.489l.224-1.012c.578-2.618,1.031-5.096,1.413-7.795-8.105,8.157-16.853,9.961-27.923,9.906-8.847-.044-20.474.631-27.099-5.653-3.859-3.661-4.406-12.007-3.486-15.95l5.858-25.128,3.416-14.696,3.564-15.347,1.52-5.746,11.853.093-4.958,21.399-8.388,35.832c-.925,3.953-1.671,11.168,2.931,12.91,2.777,1.051,5.775,1.809,8.7,1.8l15.22-.049c11.091-.035,20.004-6.195,22.571-17.302l7.404-32.025,5.207-22.516,11.592-.146c.081.359.084,1.832-.067,2.485l-10.459,45.502Z"/>
  <path d="M212.76,106.452l4.003-16.221,7.277-30.841-11.109-.254,2.043-9.911,11.429-.227,1.422-5.885,2.771-12.737-22.9-.726-38.127-1.088-20.582-.654c-6.319-.201-12.24.448-18.732-.66,5.875-.971,11.201-.533,16.947-.744l32.671-1.197,35.69-1.128,19.396-.603,9.136-.308c-.068,1.119-.128,2.52-.36,3.495l-5.31,22.316,23.452.099-2.337,10.055-23.507-.006-10.101,43.686c-1.303,5.633-4.218,14.886,1.68,16.971,2.08.735,4.502,1.21,6.681,1.241l11.282.162-2.075,10.099-14.64-.059c-4.29-.017-8.75-.968-12.227-3.356-6.576-4.518-5.677-14.212-3.873-21.522Z"/>
</svg>