<?xml version="1.0" encoding="UTF-8"?>
<svg id="Layer_1" xmlns="http://www.w3.org/2000/svg" version="1.1" viewBox="0 0 948 601">
  <!-- Generator: Adobe Illustrator 29.3.1, SVG Export Plug-In . SVG Version: 2.1.0 Build 151)  -->
  <path d="M664,178l160.5,1.1s8.2-5.3,6.5-5.1c-5.9-10.7-18-15.5-27.3-24.7-.9-.9-3.4-.8-4.6-1.4l.5-107.9c1.9,3.7,5.3,4,7.7,7.3,10.8,14.5,29.5,62.8,38,82,15.6,35.6,30.2,71.9,42.8,108.7,1.1.8,10-7.8,10-8.5v-31.5c-13.9,3.7-18.7-12.9-25.9-21.9l54.9-110.1v169.5l-28.9,39-.3,190.7-33.8,51.7-2.2-256.2c-.5-3.6-20.1-50.9-21.9-53.1-2.8-3.5-5.1-1.6-8.8-2.6-3.2,2.1,1,53.7-1.5,62-1.3,4.2-17,22.1-23.5,17l24.9,44.5c-5.9,58.2,8.1,133.8,0,190-2.1,14.9-23.8,33.2-28.1,48.5l-3.2-238.3-19.8-36.7-1,75.3-22,19.7-.5-10-4,1c-1.9-1.4-2.2-3.3-2.5-5.5-3.7-25.2,1.5-63,2-89l-19-25.5h17.5l.5-51h-51v57h25c-2.5,2.6-14,22.2-15.2,22.8-2.8,1.2-8.9-1.5-10.6,1.9l.3,42.9c3.8,10.1,36,38.3,29.4,48.3l-18.7,6c-4.8-8-34.2-42.7-34.2-49.4v-128.5h-14v132.5l-25,37.5,1.5-164-29,108-30.5-109v97.5c0,2.3-21.7,34.1-25,38.5v-137h-11l-1.8,116.7-25.7,31-39.5-30.2v-33.5h-12v41.5l-38.3,39.4-51.7-46.3,12,2.5c-1.1-32.6,4.5-66.6-2.9-98.3l55.4-56.7h46.5c-8.8,5.3-37.4,41.1-43,43.5-5.4,2.3-14.7-1.3-16-1-1,.2-12,12.4-13.8,14.3v92.6l12.3,11.7c1.7-2,15.5-15.4,15.5-16.5v-26.5h-17v-21.5c0-1.3,17.2-17.5,18.5-17.5h22.5v13h14l-1.7-56.2,39.2-41.8,28,16.7,7.2-10.7,43,.2,16.2,55.8,6.1-44.4,47.9-41.6v30h0v-.2h0ZM798,258v-24.5c0-8.3,11-16.3,14.6-23.4l-1.1-3.1h-31l-1.5,1.5v45c0,1.4.2,3.6,1.5,4.5h17.5ZM498,211v100.5c0,.8,9.6,9.7,11.5,10.5,1.2,0,10.5-9.8,10.5-10.5v-99l-1.5-1.5h-20.5Z"/>
  <path d="M149,272h15v-70.5l38.5-47.5c5.1,13.6,24.1,31.4,28.1,44,4.1,12.8-1.4,70.1.9,73l13.6.5-2.6-125.6,54.5,88v-56h121c-3.2,3.8-27.4,30-29.5,30h-20.5v105l-22-22.5v-82.5h-25.5l-1.5,1.5v143c0,5.2-11.8,30.5-12.9,40.1-2.5,21.1,0,49.6-1.1,71.9-.7,16.4-1.9,33.2-4,49.5-3.2-46-3.2-92.4-6-138.5-.5-8.4-4.4-15.9-5-23-1.9-24.5,3.3-53.7-2.5-77.5-.7-3-10.5-14-10.5-14l-6.2-19.3-2.3-.8-.5,68.5-23,34.5v-50h-13v55.5c0,4.6-50.8,63.6-52.5,76.5-2.6-1.4,1.5-51.4-.7-58.3-1.7-5.2-14.8-13.8-14.8-17.2v-56.5h-15l1.9,142.4-31.9,57.6,2-281-33,96c-2.6.5-1.6-.5-2.1-1.4-10.9-19.1-16.9-59.2-32.2-78.8-.8-1.1-.8-2.2-2.7-1.8,1.1,20.1-1.4,41.6,0,61.4,0,1.1,3.1,0,3.2,1.1.4,4.9.7,10,1,14.9,2.4,44.5,1.4,109.4-1,154.1,0,2.5-1.4,16.1-2.1,16.5l-30.9-48.6-1-363.4,66,132L151.5,35c1.6,34.8-.3,69.7-.6,104.6,0,3,2.1,4.7,2.1,6.9-.4,42-4.1,83.4-4,125.5h0ZM199,195c-2,3.1-11,10.9-12,13.4-2.3,5.9-2.4,117.7-.5,126.1.5,2.3,8.7,9.4,10.1,12.5,4.8-3.9,11.6-10.2,12.5-16.4,2.2-14,2.4-106.8,0-120.1-1.1-6-8.1-9.8-10.1-15.5h0Z"/>
  <path d="M637,386v153l108.4-2,50.3,31.9-156.2-5.9-33.6-11.7,6.8-72.5-18.7-23.2c0-2.6,17.5,2.5,19.8-4.2l2.3-55.1,20.9-10.2h0Z"/>
  <path d="M723.1,397.6l37,2.5,8.4,7.9,4.5,14.5-1.9,11.6-2.5,13.4,13.4,18.4,2.5,36.1c-.5.8-16.7,22.9-17.5,23.1-14.1,4.4-32.9-2.4-42.8-12.9l-.5-54.5-13-16.5h15M757.8,441l3.8-16.5c0,1.4-4.4-10.6-4.4-10.6l-13.3-5.9-4.6,16.5,4.6,16.5h14,0ZM739.2,458l4.6,47.5,15.6-10,9.2-13.8c0-1.5-8.4-22-8.4-22l-20.9-1.8h0Z"/>
  <path d="M283,33c-4.4,3-28.4,30-30.5,30h-20.5v107l-22-22.5V63h-25.5l-23.5-30h122Z"/>
  <path d="M673,497.5c-1.2,5.4-19.3,13.8-20.9,20.2l-3.6-129.7c17.3,28.4,48.5,58.6,62.7,88.3,7.7,16.1,6.7,26,3.8,43.7-9.4-20.4-15.4-27.9-38.1-34.5l-3.9,5.2c-.7,4.9.9,2.3,0,6.8h0ZM673,453v23.5c2.3,2.5,16.1,2.2,17,0l-13.2-23.3-3.8-.2Z"/>
  <path d="M286,98l1-63c4.6,7.9,14.2,13.7,15.1,23.5,2.5,29.7-4.6,66.2-.3,96.8l-14.8,18.7-1-60h-24l1,43c-3-2.3-16-22.8-16-24.5v-62.5h15v28h24,0Z"/>
  <path d="M367,71v12h-33.5l-1.5,1.5v22l1.5,1.5h16l-8.5,8.4-8.5,1.5c-.7.8-.8,16.8-.3,18.4,1,2.9,34,23.4,35.6,26.9.6,1.2.2,2.5.2,3.8h-22c-.1,0,.2-2.9,0-3-.1,0-1.4,1-1.8.7-9.4-6.7-20.4-20.6-31-27.4l-.2-66.3h54,0Z"/>
</svg>